<svg width="16" height="22"
    xmlns="http://www.w3.org/2000/svg" viewBox="0 0 36 36">
    <style type="text/css">.st0{fill-opacity:0;}</style>

    <title>cog-line</title>
    <g>
        <title>background</title>
        <rect fill="none" id="canvas_background" height="402" width="582" y="-1" x="-1"></rect>
    </g>
    <g>
        <title>Layer 1</title>
        <path fill="#424242" id="svg_1" d="m32.8,14.7l-2.8,-0.9l-0.6,-1.5l1.4,-2.6c0.3,-0.6 0.2,-1.4 -0.3,-1.9l-2.4,-2.4c-0.5,-0.5 -1.3,-0.6 -1.9,-0.3l-2.6,1.4l-1.5,-0.6l-0.9,-2.8c-0.2,-0.6 -0.8,-1.1 -1.5,-1.1l-3.4,0c-0.7,0 -1.3,0.5 -1.4,1.2l-0.9,2.8c-0.6,0.1 -1.1,0.3 -1.6,0.6l-2.6,-1.4c-0.6,-0.3 -1.4,-0.2 -1.9,0.3l-2.4,2.4c-0.5,0.5 -0.6,1.3 -0.3,1.9l1.3,2.5c-0.2,0.5 -0.4,1.1 -0.6,1.6l-2.8,0.9c-0.6,0.2 -1.1,0.8 -1.1,1.5l0,3.4c0,0.7 0.5,1.3 1.2,1.5l2.8,0.9l0.6,1.5l-1.4,2.6c-0.3,0.6 -0.2,1.4 0.3,1.9l2.4,2.4c0.5,0.5 1.3,0.6 1.9,0.3l2.6,-1.4l1.5,0.6l0.9,2.9c0.2,0.6 0.8,1.1 1.5,1.1l3.4,0c0.7,0 1.3,-0.5 1.5,-1.1l0.9,-2.9l1.5,-0.6l2.6,1.4c0.6,0.3 1.4,0.2 1.9,-0.3l2.4,-2.4c0.5,-0.5 0.6,-1.3 0.3,-1.9l-1.4,-2.6l0.6,-1.5l2.9,-0.9c0.6,-0.2 1.1,-0.8 1.1,-1.5l0,-3.4c0,-0.7 -0.5,-1.4 -1.2,-1.6zm-0.8,4.7l-3.6,1.1l-0.1,0.5c-0.3,0.7 -0.6,1.4 -0.9,2.1l-0.3,0.5l1.8,3.3l-2,2l-3.3,-1.8l-0.5,0.3c-0.7,0.4 -1.4,0.7 -2.1,0.9l-0.5,0.1l-1.1,3.6l-2.8,0l-1.1,-3.6l-0.5,-0.1c-0.7,-0.3 -1.4,-0.6 -2.1,-0.9l-0.5,-0.3l-3.3,1.8l-2,-2l1.8,-3.3l-0.3,-0.5c-0.4,-0.7 -0.7,-1.4 -0.9,-2.1l-0.1,-0.5l-3.6,-1.1l0,-2.8l3.4,-1l0.2,-0.5c0.2,-0.8 0.5,-1.5 0.9,-2.2l0.3,-0.5l-1.7,-3.3l2,-2l3.2,1.8l0.5,-0.3c0.7,-0.4 1.4,-0.7 2.2,-0.9l0.5,-0.2l1.1,-3.5l2.8,0l1.1,3.5l0.5,0.2c0.7,0.2 1.4,0.5 2.1,0.9l0.5,0.3l3.3,-1.8l2,2l-1.8,3.3l0.3,0.5c0.4,0.7 0.7,1.4 0.9,2.1l0.1,0.5l3.6,1.1l0,2.8z"></path>
        <rect stroke="null" x="0.021067" y="0.020074" id="svg_2" height="35.927782" width="35.980119" class="st0"></rect>
        <g id="svg_3">
            <path fill="#424242" id="svg_4" d="m13.7,25.1c-0.2,0 -0.3,0 -0.5,-0.1c-0.3,-0.2 -0.5,-0.5 -0.5,-0.9l0,-12.2c0,-0.4 0.2,-0.7 0.5,-0.9s0.7,-0.2 1,0l10.6,6.1c0.3,0.2 0.5,0.5 0.5,0.9s-0.2,0.7 -0.5,0.9l-10.6,6.1c-0.2,0.1 -0.3,0.1 -0.5,0.1zm1,-11.5l0,8.8l7.6,-4.4l-7.6,-4.4z"></path>
        </g>
    </g>
</svg>
