<svg version="1.1" width="16" height="22" viewBox="0 0 36 36" preserveAspectRatio="xMidYMid meet"
    xmlns="http://www.w3.org/2000/svg"
    xmlns:xlink="http://www.w3.org/1999/xlink" class="has-solid" role="img">
    <title>organization</title>

    <polygon fill="#C5C5C5" points="9.8 18.8 26.2 18.8 26.2 21.88 27.8 21.88 27.8 17.2 18.8 17.2 18.8 14 17.2 14 17.2 17.2 8.2 17.2 8.2 21.88 9.8 21.88 9.8 18.8"></polygon>
    <path fill="#C5C5C5" d="M14,23H4a2,2,0,0,0-2,2v6a2,2,0,0,0,2,2H14a2,2,0,0,0,2-2V25A2,2,0,0,0,14,23ZM4,31V25H14v6Z"></path>
    <path fill="#C5C5C5" d="M32,23H22a2,2,0,0,0-2,2v6a2,2,0,0,0,2,2H32a2,2,0,0,0,2-2V25A2,2,0,0,0,32,23ZM22,31V25H32v6Z"></path>
    <path fill="#C5C5C5" d="M13,13H23a2,2,0,0,0,2-2V5a2,2,0,0,0-2-2H13a2,2,0,0,0-2,2v6A2,2,0,0,0,13,13Zm0-8H23v6H13Z"></path>
    <polygon style="display: none" points="9.8 18.8 26.2 18.8 26.2 21.88 27.8 21.88 27.8 17.2 18.8 17.2 18.8 14 17.2 14 17.2 17.2 8.2 17.2 8.2 21.88 9.8 21.88 9.8 18.8"></polygon>
    <rect x="2" y="23" width="14" height="10" rx="2" ry="2" style="display: none"></rect>
    <rect x="20" y="23" width="14" height="10" rx="2" ry="2" style="display: none"></rect>
    <rect x="11" y="3" width="14" height="10" rx="2" ry="2" style="display: none"></rect>
</svg>
