<?xml version="1.0" encoding="UTF-8" standalone="no"?>
<!DOCTYPE svg PUBLIC "-//W3C//DTD SVG 1.1//EN" "http://www.w3.org/Graphics/SVG/1.1/DTD/svg11.dtd">
<svg version="1.1"
    xmlns="http://www.w3.org/2000/svg"
    xmlns:xlink="http://www.w3.org/1999/xlink" preserveAspectRatio="xMidYMid meet" viewBox="-0.04064779309564415 -0.03618993228171541 36 36.879999999999995" width="28" height="28.77">
    <defs>
        <path d="M16.24 5.63L16.81 5.69L17.38 5.77L17.93 5.87L18.48 6L19.02 6.14L19.55 6.31L20.07 6.49L20.58 6.7L21.09 6.92L21.58 7.16L22.05 7.43L22.52 7.7L22.98 8L23.43 8.31L23.86 8.64L24.28 8.99L24.68 9.35L25.07 9.73L25.45 10.12L25.81 10.52L26.16 10.94L26.48 11.37L26.8 11.82L27.09 12.28L27.37 12.74L27.63 13.23L27.88 13.72L28.1 14.22L28.31 14.73L28.49 15.25L28.66 15.78L28.8 16.32L28.93 16.87L29.03 17.42L29.11 17.99L29.17 18.56L29.2 19.13L29.21 19.72L29.2 20.3L29.17 20.87L29.11 21.44L29.03 22.01L28.93 22.56L28.8 23.11L28.66 23.65L28.49 24.18L28.31 24.7L28.1 25.21L27.88 25.71L27.63 26.21L27.37 26.69L27.09 27.16L26.8 27.61L26.48 28.06L26.16 28.49L25.81 28.91L25.45 29.31L25.07 29.7L24.68 30.08L24.28 30.44L23.86 30.79L23.43 31.12L22.98 31.43L22.52 31.73L22.05 32.01L21.58 32.27L21.09 32.51L20.58 32.73L20.07 32.94L19.55 33.12L19.02 33.29L18.48 33.43L17.93 33.56L17.38 33.66L16.81 33.74L16.24 33.8L15.67 33.83L15.08 33.84L14.5 33.83L13.93 33.8L13.36 33.74L12.8 33.66L12.24 33.56L11.69 33.43L11.15 33.29L10.62 33.12L10.1 32.94L9.59 32.73L9.09 32.51L8.6 32.27L8.11 32.01L7.65 31.73L7.19 31.43L6.75 31.12L6.31 30.79L5.89 30.44L5.49 30.08L5.1 29.7L4.72 29.31L4.36 28.91L4.02 28.49L3.69 28.06L3.37 27.61L3.08 27.16L2.8 26.69L2.54 26.21L2.29 25.71L2.07 25.21L1.86 24.7L1.68 24.18L1.52 23.65L1.37 23.11L1.25 22.56L1.14 22.01L1.06 21.44L1.01 20.87L0.97 20.3L0.96 19.72L0.97 19.13L1.01 18.56L1.06 17.99L1.14 17.42L1.25 16.87L1.37 16.32L1.52 15.78L1.68 15.25L1.86 14.73L2.07 14.22L2.29 13.72L2.54 13.23L2.8 12.74L3.08 12.28L3.37 11.82L3.69 11.37L4.02 10.94L4.36 10.52L4.72 10.12L5.1 9.73L5.49 9.35L5.89 8.99L6.31 8.64L6.75 8.31L7.19 8L7.65 7.7L8.11 7.43L8.6 7.16L9.09 6.92L9.59 6.7L10.1 6.49L10.62 6.31L11.15 6.14L11.69 6L12.24 5.87L12.8 5.77L13.36 5.69L13.93 5.63L14.5 5.6L15.08 5.59L15.67 5.6L16.24 5.63ZM14.24 11.03L13.88 11.07L13.51 11.12L13.16 11.19L12.81 11.27L12.47 11.37L12.13 11.48L11.8 11.61L11.47 11.74L11.15 11.9L10.84 12.06L10.54 12.23L10.24 12.42L9.95 12.62L9.67 12.83L9.4 13.05L9.14 13.28L8.89 13.52L8.65 13.77L8.42 14.03L8.2 14.3L7.99 14.58L7.79 14.87L7.61 15.16L7.43 15.47L7.27 15.78L7.12 16.1L6.98 16.42L6.86 16.76L6.74 17.09L6.65 17.44L6.56 17.79L6.49 18.14L6.44 18.5L6.4 18.87L6.38 19.24L6.37 19.61L6.38 19.99L6.4 20.36L6.44 20.72L6.49 21.08L6.56 21.44L6.65 21.79L6.74 22.13L6.86 22.47L6.98 22.8L7.12 23.13L7.27 23.45L7.43 23.76L7.61 24.06L7.79 24.36L7.99 24.64L8.2 24.92L8.42 25.19L8.65 25.45L8.89 25.7L9.14 25.94L9.4 26.18L9.67 26.4L9.95 26.61L10.24 26.81L10.54 26.99L10.84 27.17L11.15 27.33L11.47 27.48L11.8 27.62L12.13 27.74L12.47 27.85L12.81 27.95L13.16 28.03L13.51 28.1L13.88 28.16L14.24 28.2L14.61 28.22L14.98 28.23L15.36 28.22L15.73 28.2L16.09 28.16L16.45 28.1L16.81 28.03L17.16 27.95L17.5 27.85L17.84 27.74L18.17 27.62L18.5 27.48L18.81 27.33L19.13 27.17L19.43 26.99L19.72 26.81L20.01 26.61L20.29 26.4L20.56 26.18L20.82 25.94L21.07 25.7L21.31 25.45L21.55 25.19L21.77 24.92L21.98 24.64L22.17 24.36L22.36 24.06L22.54 23.76L22.7 23.45L22.85 23.13L22.99 22.8L23.11 22.47L23.22 22.13L23.32 21.79L23.4 21.44L23.47 21.08L23.53 20.72L23.56 20.36L23.59 19.99L23.6 19.61L23.59 19.24L23.56 18.87L23.53 18.5L23.47 18.14L23.4 17.79L23.32 17.44L23.22 17.09L23.11 16.76L22.99 16.42L22.85 16.1L22.7 15.78L22.54 15.47L22.36 15.16L22.17 14.87L21.98 14.58L21.77 14.3L21.55 14.03L21.31 13.77L21.07 13.52L20.82 13.28L20.56 13.05L20.29 12.83L20.01 12.62L19.72 12.42L19.43 12.23L19.13 12.06L18.81 11.9L18.5 11.74L18.17 11.61L17.84 11.48L17.5 11.37L17.16 11.27L16.81 11.19L16.45 11.12L16.09 11.07L15.73 11.03L15.36 11L14.98 11L14.61 11L14.24 11.03Z" id="bvhzMFnwE"></path>
        <path d="M28.94 9.01C26.72 9.01 24.92 7.2 24.92 4.98C24.92 2.77 26.72 0.96 28.94 0.96C31.16 0.96 32.96 2.77 32.96 4.98C32.96 7.2 31.16 9.01 28.94 9.01Z" id="a7UGVoYFNZ"></path>
    </defs>
    <g>
        <g>
            <use xlink:href="#bvhzMFnwE" opacity="1" fill="#d7dae0" fill-opacity="1"></use>
            <g>
                <use xlink:href="#bvhzMFnwE" opacity="1" fill-opacity="0" stroke="#000000" stroke-width="1" stroke-opacity="0"></use>
            </g>
        </g>
        <g>
            <use xlink:href="#a7UGVoYFNZ" opacity="1" fill="#d7dae0" fill-opacity="1"></use>
            <g>
                <use xlink:href="#a7UGVoYFNZ" opacity="1" fill-opacity="0" stroke="#000000" stroke-width="1" stroke-opacity="0"></use>
            </g>
        </g>
    </g>
</svg>
